<svg xmlns="http://www.w3.org/2000/svg" width="75" height="75" viewBox="0 0 75 75"><g id="Layer_2" data-name="Layer 2"><g id="Layer_1-2" data-name="Layer 1"><g id="Layer_1-2-2" data-name="Layer 1-2"><polygon points="53 23 44.2 28.8 42.9 26.8 48.6 23 42.9 19.2 44.2 17.1 53 23" fill="#9d1f34"/><polygon points="41.1 16.1 36.3 30.6 34 29.8 38.8 15.3 41.1 16.1" fill="#9d1f34"/><polygon points="30.8 17.1 32.1 19.2 26.4 23 32.1 26.8 30.8 28.8 22 23 30.8 17.1" fill="#9d1f34"/><rect x="21.8" y="4.8" width="2.4" height="2.4" fill="#a31f34"/><rect x="16.9" y="4.8" width="2.4" height="2.4" fill="#a31f34"/><rect x="12.1" y="4.8" width="2.4" height="2.4" fill="#a31f34"/><path d="M23,72.4V67.6H6a6,6,0,0,1-6-6V22.9a6,6,0,0,1,6-6H7.2V0H67.7V16.9h1.2A6.1,6.1,0,0,1,75,23V61.7a6.1,6.1,0,0,1-6.1,6.1H52v4.8h3.7V75H19.4V72.4Zm42.3-70H9.7V9.7H65.3ZM6,65.3H69a3.6,3.6,0,0,0,3.6-3.6V60.5H2.4v1.2A3.6,3.6,0,0,0,6,65.3Zm19.4,7.3H49.6V67.8H25.4ZM67.7,55.7H7.2V19.4H6A3.6,3.6,0,0,0,2.4,23V58H72.5V23a3.6,3.6,0,0,0-3.6-3.6H67.7ZM33.1,33.9h9.1l1.2,4.6,1.4.6,4.1-2.4,6.4,6.5-2.4,4.1.6,1.4,4.6,1.2v3.3h7.2V12.1H9.7v41h7.5V49.8l4.6-1.2.6-1.4L20,43.1l6.4-6.4,4.1,2.4,1.4-.6Zm8,6.4-1-4.1H34.7l-1,4.1-.7.2-2.3,1-.6.3-3.6-2.2-3.8,3.8,2.2,3.7-.3.6a15.7,15.7,0,0,0-.9,2.3l-.2.7-4.1,1v1.5h6.2a11.6,11.6,0,0,1,4-6.8,12,12,0,0,1,17,1.3l-1.8,1.6a10.4,10.4,0,0,0-4.9-3,9.6,9.6,0,0,0-11.8,6.9H46.9c-.2-.7-.5-1.4-.8-2.2l2.1-1.1a12.1,12.1,0,0,1,1.1,3.2h6.3V51.6l-4.1-1-.2-.6a21.4,21.4,0,0,0-1-2.2l-.3-.6,2.1-3.8-3.8-3.8-3.7,2.2-.6-.3-2.3-1Z" fill="#a31f34"/></g></g></g></svg>