<svg xmlns="http://www.w3.org/2000/svg" width="75" height="75.1" viewBox="0 0 75 75.1"><g id="Layer_2" data-name="Layer 2"><g id="Layer_1-2" data-name="Layer 1"><g id="Layer_1-2-2" data-name="Layer 1-2"><path d="M74.8,33.5a31.4,31.4,0,0,1-.1,8.1,1.6,1.6,0,0,1-.8,1l-7.6,3a30.6,30.6,0,0,1-2.8,6.7l3.2,7.5a1.2,1.2,0,0,1-.2,1.3,37.7,37.7,0,0,1-5.7,5.6,1.3,1.3,0,0,1-1.3.2L52,63.7a32.7,32.7,0,0,1-6.7,2.8l-3,7.6a1.2,1.2,0,0,1-1,.8,34.8,34.8,0,0,1-7.9,0,1.6,1.6,0,0,1-1-.8l-3-7.6a30.6,30.6,0,0,1-6.7-2.8l-7.5,3.2a1.2,1.2,0,0,1-1.3-.2,37.1,37.1,0,0,1-5.6-5.6,1.4,1.4,0,0,1-.1-1.4l3.2-7.6a32.7,32.7,0,0,1-2.8-6.7L1,42.4a1.2,1.2,0,0,1-.8-1,34.8,34.8,0,0,1,0-7.9,1.6,1.6,0,0,1,.8-1l7.6-3.1a30.6,30.6,0,0,1,2.8-6.7L8.2,15.2a1.2,1.2,0,0,1,.1-1.3,37.1,37.1,0,0,1,5.6-5.6,1.4,1.4,0,0,1,1.4-.1l7.6,3.2a32.7,32.7,0,0,1,6.7-2.8l3-7.6a1.2,1.2,0,0,1,1-.8,34.8,34.8,0,0,1,7.9,0,1.6,1.6,0,0,1,1,.8l3.1,7.6a30.6,30.6,0,0,1,6.7,2.8l7.5-3.2a.9.9,0,0,1,1.2.2A37.1,37.1,0,0,1,66.6,14a1.2,1.2,0,0,1,.2,1.3l-3.2,7.5a32.7,32.7,0,0,1,2.8,6.7l7.6,3A1.2,1.2,0,0,1,74.8,33.5Zm-2.4,6.9c.1-.9-.2-2-.2-3s-.1-2-.1-2.9l-7.5-3a1.1,1.1,0,0,1-.7-.8,32.3,32.3,0,0,0-3-7.2,1.1,1.1,0,0,1,0-1.1L64.1,15a20.9,20.9,0,0,0-2-2.2l-2.2-2L52.5,14a1.1,1.1,0,0,1-1.1,0,30.4,30.4,0,0,0-7.2-3,1.3,1.3,0,0,1-.8-.7l-3-7.5H34.5l-3,7.5a1.1,1.1,0,0,1-.8.7,32.3,32.3,0,0,0-7.2,3,1.1,1.1,0,0,1-1.1,0L15,10.8a13.7,13.7,0,0,0-2.2,2l-2,2.2L14,22.6a1.1,1.1,0,0,1,0,1.1,30.4,30.4,0,0,0-3,7.2,1.3,1.3,0,0,1-.7.8l-7.5,3a27.1,27.1,0,0,0-.1,2.9,27.1,27.1,0,0,0,.1,2.9l7.5,3a1.1,1.1,0,0,1,.7.8,32.3,32.3,0,0,0,3,7.2,1.1,1.1,0,0,1,0,1.1L10.8,60a20.9,20.9,0,0,0,2,2.2l2.2,2,7.7-3.3a1.1,1.1,0,0,1,1.1,0,30.4,30.4,0,0,0,7.2,3,.9.9,0,0,1,.8.7l3,7.5a58.1,58.1,0,0,0,5.9,0l3-7.5a1.1,1.1,0,0,1,.8-.7,32.3,32.3,0,0,0,7.2-3,1.1,1.1,0,0,1,1.1,0l7.4,3.2a20.9,20.9,0,0,0,2.2-2l2-2.2-3.2-7.4a1.1,1.1,0,0,1,0-1.1,30.4,30.4,0,0,0,3-7.2,1.3,1.3,0,0,1,.7-.8Z" fill="#a31f34"/><path d="M37.5,13.8A23.7,23.7,0,1,1,13.8,37.5,23.7,23.7,0,0,1,37.5,13.8ZM58.7,37.5A21.2,21.2,0,1,0,37.5,58.7,21.2,21.2,0,0,0,58.7,37.5Z" fill="#a31f34"/><path d="M52.1,36.7a1.3,1.3,0,0,1,0,1.8l-6.2,6.3a1.3,1.3,0,0,1-1.2.3,1.4,1.4,0,0,1-.9-.9,1.3,1.3,0,0,1,.3-1.2l5.4-5.4-5.4-5.4a1.4,1.4,0,0,1,0-1.7,1.3,1.3,0,0,1,1.8-.1Z" fill="#9d1f34"/><path d="M40.3,27.6a1.2,1.2,0,0,1,.9,1.6l-5,17.5a1.3,1.3,0,0,1-1.2.9h-.4a1.2,1.2,0,0,1-.8-1.6l5-17.5A1.2,1.2,0,0,1,40.3,27.6Z" fill="#9d1f34"/><path d="M31.2,31.3a1.2,1.2,0,0,1-.4.9l-5.4,5.4L30.8,43a1.4,1.4,0,0,1,0,1.7,1.3,1.3,0,0,1-1.8.1l-6.2-6.2a1.3,1.3,0,0,1,0-1.8L29,30.5a1.2,1.2,0,0,1,.9-.4A1.2,1.2,0,0,1,31.2,31.3Z" fill="#9d1f34"/></g></g></g></svg>